<svg xmlns="http://www.w3.org/2000/svg" x="0px" y="0px"
width="30" height="30"
viewBox="0 0 172 172"
style=" fill:#000000;"><g fill="none" fill-rule="nonzero" stroke="none" stroke-width="1" stroke-linecap="butt" stroke-linejoin="miter" stroke-miterlimit="10" stroke-dasharray="" stroke-dashoffset="0" font-family="none" font-weight="none" font-size="none" text-anchor="none" style="mix-blend-mode: normal"><path d="M0,172v-172h172v172z" fill="none"></path><g fill="#ffffff"><path d="M22.93333,22.93333c-6.33533,0 -11.46667,5.13133 -11.46667,11.46667v5.73333v17.2v91.73333h71.80104c-1.29573,-3.65787 -2.22364,-7.482 -2.66511,-11.46667h-57.66927v-80.26667h126.13333v25.93438c4.0764,1.4448 7.93493,3.33187 11.46667,5.69974v-48.83411v-5.73333c0,-6.33533 -5.13133,-11.46667 -11.46667,-11.46667zM45.86667,74.53333c-3.16643,0 -5.73333,2.5669 -5.73333,5.73333c0,3.16643 2.5669,5.73333 5.73333,5.73333c3.16643,0 5.73333,-2.5669 5.73333,-5.73333c0,-3.16643 -2.5669,-5.73333 -5.73333,-5.73333zM68.8,74.53333c-3.1648,0 -5.73333,2.56853 -5.73333,5.73333c0,3.1648 2.56853,5.73333 5.73333,5.73333h39.49505c5.4352,-2.79787 11.42429,-4.66953 17.77109,-5.3862c0.00573,-0.1204 0.06719,-0.22674 0.06719,-0.34714c0,-3.1648 -2.56853,-5.73333 -5.73333,-5.73333zM131.86667,91.73333c-22.16507,0 -40.13333,17.96827 -40.13333,40.13333c0,22.16507 17.96827,40.13333 40.13333,40.13333c22.16507,0 40.13333,-17.96827 40.13333,-40.13333c0,-22.16507 -17.96827,-40.13333 -40.13333,-40.13333zM45.86667,97.46667c-3.16643,0 -5.73333,2.5669 -5.73333,5.73333c0,3.16643 2.5669,5.73333 5.73333,5.73333c3.16643,0 5.73333,-2.5669 5.73333,-5.73333c0,-3.16643 -2.5669,-5.73333 -5.73333,-5.73333zM68.8,97.46667c-3.1648,0 -5.73333,2.56853 -5.73333,5.73333c0,3.1648 2.56853,5.73333 5.73333,5.73333h16.89766c2.0812,-4.1796 4.70348,-8.02667 7.79375,-11.46667zM131.86667,108.93333c3.1648,0 5.73333,2.5628 5.73333,5.73333v11.46667h11.46667c3.1648,0 5.73333,2.5628 5.73333,5.73333c0,3.17053 -2.56853,5.73333 -5.73333,5.73333h-11.46667v11.46667c0,3.17053 -2.56853,5.73333 -5.73333,5.73333c-3.1648,0 -5.73333,-2.5628 -5.73333,-5.73333v-11.46667h-11.46667c-3.1648,0 -5.73333,-2.5628 -5.73333,-5.73333c0,-3.17053 2.56853,-5.73333 5.73333,-5.73333h11.46667v-11.46667c0,-3.17053 2.56853,-5.73333 5.73333,-5.73333z"></path></g></g></svg>