<svg xmlns="http://www.w3.org/2000/svg" x="0px" y="0px"
width="24" height="24"
viewBox="0 0 172 172"
style=" fill:#000000;"><g fill="none" fill-rule="nonzero" stroke="none" stroke-width="1" stroke-linecap="butt" stroke-linejoin="miter" stroke-miterlimit="10" stroke-dasharray="" stroke-dashoffset="0" font-family="none" font-weight="none" font-size="none" text-anchor="none" style="mix-blend-mode: normal"><path d="M0,172v-172h172v172z" fill="none"></path><g fill="#ffffff"><path d="M35.83333,21.5c-7.91917,0 -14.33333,6.41417 -14.33333,14.33333v7.16667v7.16667v86c0,7.90483 6.4285,14.33333 14.33333,14.33333h80.0651l-14.33333,-14.33333h-65.73177v-86h100.33333l-0.014,51.39844l14.34733,14.33333v-65.73177v-7.16667v-7.16667c0,-7.91917 -6.41417,-14.33333 -14.33333,-14.33333zM50.16667,71.66667v14.33333h14.33333v-14.33333zM78.83333,71.66667v14.33333h43v-14.33333zM50.16667,100.33333v14.33333h14.33333v-14.33333zM78.83333,100.33333v14.33333h14.33333v-14.33333zM107.5,107.5v14.33333l36.88314,36.88314l14.33333,-14.33333l-36.88314,-36.88314zM163.78353,149.4502l-14.33333,14.33333l7.16667,7.16667c1.3975,1.3975 3.66956,1.3975 5.06706,0l9.26628,-9.26628c1.3975,-1.40467 1.3975,-3.66956 0,-5.06706z"></path></g></g></svg>